<svg width="256" height="128" viewBox="0 0 256 128" fill="none" xmlns="http://www.w3.org/2000/svg">
<path d="M256 0H0V128.004H256V0Z" fill="#E3120B"/>
<path d="M133.027 55.3868V56.8262H142.877V55.3868C140.929 55.1822 140.111 54.6671 140.111 52.9244V41.332C140.111 37.4373 137.444 35.4828 134.368 35.4828C131.087 35.4828 128.519 37.536 127.185 38.7637V37.536L127.39 25.5344C124.828 26.2541 122.161 26.6633 119.593 26.7621V27.9897C121.851 28.5048 122.465 29.1187 122.465 30.8614V52.9103C122.465 54.653 121.646 55.0623 120.002 55.3727V56.8121H129.746V55.3727C127.693 55.3727 127.185 54.7589 127.185 52.9103V42.6514C127.185 40.189 128.928 38.4462 131.496 38.4462C134.064 38.4462 135.391 39.8856 135.391 42.5455V52.9032C135.391 54.646 134.777 55.0552 133.034 55.3657L133.027 55.3868Z" fill="white"/>
<path d="M41.4378 94.1576H39.5892C36.6117 94.1576 35.7933 93.2333 35.7933 91.2859V80.2086L40.4077 80.4132C42.6655 80.519 43.4839 81.027 43.8932 84.4137H45.5371V74.2607H43.8932C43.4839 77.6474 42.6655 78.2612 40.4077 78.36L35.7933 78.5646V68.7149C35.7933 66.6617 36.7176 65.8433 39.0742 65.8433H42.355C46.0451 65.8433 46.666 67.3814 47.5833 71.2761H49.2272V63.9947H26.7621V65.4341C29.1186 65.9491 30.2476 66.7676 30.2476 68.5103V91.2789C30.2476 93.2262 29.1186 94.0447 26.5574 94.5598V95.9991H49.6365L50.5608 87.5888H48.7122C47.3787 92.5136 46.659 94.1505 41.4308 94.1505L41.4378 94.1576Z" fill="white"/>
<path d="M194.157 91.9986V79.6935L194.362 73.2305C191.695 74.049 189.134 74.4582 186.467 74.6699V76.0034C188.724 76.1092 189.232 77.3369 189.232 79.2843V92.0056C189.232 93.953 188.513 94.468 186.876 94.5668V96.0062H196.726V94.5668C194.574 94.461 194.164 94.0518 194.164 92.0056L194.157 91.9986Z" fill="white"/>
<path d="M181.542 91.9986V79.3831C181.542 75.2837 178.67 73.2305 175.594 73.2305C173.131 73.2305 170.366 74.7687 168.207 76.6173C167.388 74.3594 165.335 73.2305 163.183 73.2305C160.417 73.2305 157.44 74.9733 155.492 76.6173L155.598 73.2305C153.037 74.049 150.575 74.4582 148.006 74.6699V76.0034C150.264 76.1092 150.772 77.3369 150.772 79.2843V92.0056C150.772 93.953 149.848 94.468 148.211 94.5668V96.0062H158.47V94.5668C156.417 94.461 155.704 94.0518 155.704 92.0056V80.4132C155.704 77.7462 157.447 76.1022 160.015 76.1022C162.273 76.1022 163.705 77.7462 163.705 80.3074V91.9986C163.705 93.9459 162.887 94.461 161.144 94.5598V95.9991H171.403V94.5598C169.35 94.4539 168.637 94.0447 168.637 91.9986V80.4061C168.637 77.7391 170.38 76.0951 172.948 76.0951C175.206 76.0951 176.638 77.7391 176.638 80.3003V91.9915C176.638 93.9389 175.82 94.4539 174.077 94.5527V95.9921H184.23V94.5527C182.283 94.4469 181.563 94.0376 181.563 91.9915L181.542 91.9986Z" fill="white"/>
<path d="M210.463 83.3836L206.773 81.535C204.924 80.6108 204.212 79.3831 204.212 78.0496C204.212 75.9964 205.856 74.6628 208.008 74.6628C210.773 74.6628 211.902 76.9207 212.728 78.868H214.061L213.955 74.3524C212.311 73.6327 210.265 73.2235 208.523 73.2235C204.113 73.2235 200.006 75.7847 200.006 80.1945C200.006 82.8615 201.545 84.9147 203.901 86.0436L207.288 87.6876C209.44 88.7106 210.47 89.6349 210.47 91.4835C210.47 93.7413 208.621 94.8208 206.469 94.8208C203.083 94.8208 202.06 92.4078 201.34 89.2257H199.802L199.908 94.969C201.135 95.5828 203.704 96.4083 206.469 96.4083C211.599 96.4083 215.084 93.4309 215.084 89.3315C215.084 86.5657 213.546 84.9218 210.47 83.3836H210.463Z" fill="white"/>
<path d="M162.668 52.4093L161.645 51.2804C160.107 52.7198 158.159 54.1521 155.492 54.1521C150.977 54.1521 149.34 50.97 149.34 46.0522V45.3325H162.774C163.084 39.688 160.008 35.4828 154.568 35.4828C148.62 35.4828 144.415 40.5065 144.415 47.2799C144.415 53.4324 147.696 57.5388 153.439 57.5388C157.955 57.5388 161.031 54.6671 162.668 52.4093ZM153.954 37.2326C156.311 37.2326 158.159 39.0812 157.849 43.6956H149.333C149.643 39.0812 151.591 37.2326 153.947 37.2326H153.954Z" fill="white"/>
<path d="M194.771 66.8734C194.771 65.1307 193.438 63.7971 191.695 63.7971C189.952 63.7971 188.619 65.1307 188.619 66.8734C188.619 68.6162 189.952 69.9497 191.695 69.9497C193.438 69.9497 194.771 68.6162 194.771 66.8734Z" fill="white"/>
<path d="M85.2322 73.2305C78.36 73.2305 74.6699 79.0797 74.6699 85.331C74.6699 92.2032 79.3901 96.4083 85.0276 96.4083C91.8998 96.4083 95.5899 90.4604 95.5899 84.4067C95.5899 77.3299 90.9755 73.2305 85.2322 73.2305ZM85.6414 94.7714C82.5652 94.7714 80.512 92.309 79.8981 85.5426C79.7923 84.6184 79.7923 83.6941 79.7923 82.8756C79.7923 77.6474 81.4363 74.8745 84.6113 74.8745C87.7864 74.8745 89.7408 77.3369 90.3546 84.1033C90.4604 85.0276 90.4604 85.9519 90.4604 86.7703C90.4604 91.9986 88.7177 94.7714 85.6414 94.7714Z" fill="white"/>
<path d="M65.4341 93.0287C61.1231 93.0287 58.6677 89.5432 58.6677 84.1033C58.6677 78.9738 60.107 74.9733 63.3879 74.9733C66.6688 74.9733 66.6688 79.2843 69.3358 79.2843C70.6693 79.2843 71.7983 78.1554 71.7983 76.7231C71.7983 74.5711 69.0324 73.2376 65.4411 73.2376C58.4701 73.2376 53.7499 78.2612 53.7499 85.7473C53.7499 92.309 57.3412 96.4154 63.0845 96.4154C67.8048 96.4154 70.881 93.7484 72.6238 91.286L71.6007 90.157C70.0626 91.5964 68.1152 93.0287 65.4482 93.0287H65.4341Z" fill="white"/>
<path d="M119.078 91.9986V79.3831C119.078 75.2837 116.312 73.2305 112.926 73.2305C109.539 73.2305 107.387 75.0791 105.538 76.6173L105.644 73.2305C103.083 74.049 100.621 74.4582 98.0523 74.6699V76.0034C100.31 76.1092 100.818 77.3369 100.818 79.2843V92.0056C100.818 93.953 99.8938 94.468 98.2569 94.5668V96.0062H108.41V94.5668C106.357 94.461 105.743 94.0518 105.743 92.0056V79.7993C105.743 77.5415 107.486 76.1093 110.153 76.1093C112.82 76.1093 114.153 77.5486 114.153 80.3144V92.0056C114.153 93.953 113.335 94.468 111.592 94.5668V96.0062H121.745V94.5668C119.798 94.461 119.078 94.0518 119.078 92.0056V91.9986Z" fill="white"/>
<path d="M134.975 73.2305C128.102 73.2305 124.412 79.0797 124.412 85.331C124.412 92.2032 129.132 96.4083 134.77 96.4083C141.642 96.4083 145.332 90.4604 145.332 84.4067C145.332 77.3299 140.718 73.2305 134.975 73.2305ZM135.384 94.7714C132.307 94.7714 130.254 92.309 129.64 85.5426C129.535 84.6184 129.535 83.6941 129.535 82.8756C129.535 77.6474 131.179 74.8745 134.354 74.8745C137.529 74.8745 139.483 77.3369 140.097 84.1033C140.203 85.0276 140.203 85.9519 140.203 86.7703C140.203 91.9986 138.46 94.7714 135.384 94.7714Z" fill="white"/>
<path d="M101.234 30.05C101.848 30.05 102.159 30.2546 102.159 30.9743V52.2047C102.159 54.0533 100.931 55.0764 98.4686 55.3868V56.8262H110.978V55.3868C108.516 55.0764 107.288 54.0533 107.288 52.2047V30.9743C107.288 30.2546 107.697 30.05 108.107 30.05H109.849C113.13 30.05 114.259 31.3835 115.494 35.9979H117.032V28.406H92.4148V35.9979H93.953C95.1807 31.3835 96.2108 30.05 99.5975 30.05H101.241H101.234Z" fill="white"/>
<path d="M226.874 93.6425C225.541 93.6425 224.412 93.0287 224.412 90.7709V76.5114H230.564V74.2536H224.412V68.7149H222.874C222.055 72.5109 219.797 74.8675 217.13 75.1779V76.5114H219.593L219.388 91.6881C219.388 94.5598 220.411 96.4083 224.207 96.4083C226.564 96.4083 228.723 95.6887 230.67 93.8471L230.056 92.7182C229.238 93.2333 228.003 93.6425 226.874 93.6425Z" fill="white"/>
</svg>
