<svg height="32" viewBox="0 0 471 32" width="471" xmlns="http://www.w3.org/2000/svg"><g fill="#1a1919" fill-rule="evenodd"><path d="m5.664 7.104.064.032v3.743h.096c.768-2.111 2.655-3.839 5.407-3.839 3.584 0 4.672 1.791 4.672 5.183v6.752c0 2.047.128 4.159.64 5.759h-5.791c.479-1.504.543-3.359.543-5.567v-6.432c0-1.568-.64-2.303-2.336-2.303-1.312 0-2.303.351-3.04 1.024v7.711c0 2.208.064 4.063.544 5.567h-5.791c.512-1.6.64-3.712.64-5.759v-6.24c0-1.695-.608-3.199-1.312-4z"/><path d="m26.143 21.407v-6.272c-.352.512-.8.832-2.08 1.44-1.632.8-2.208 1.664-2.208 3.52 0 1.504.832 2.464 2.176 2.464 1.312 0 1.76-.48 2.112-1.152zm-1.504-14.367c4.48 0 6.144 1.759 6.144 5.407v7.648c0 1.376.544 1.792 1.632 1.792.191 0 .735-.097.927-.257-.095.513-.159.801-.287 1.12-.512 1.44-1.44 2.368-3.328 2.368-2.208 0-3.328-1.536-3.392-3.167h-.064c-.736 2.207-2.176 3.167-4.448 3.167-2.783 0-4.575-1.663-4.575-4.287 0-2.752 2.496-3.936 5.087-4.96 2.464-.992 3.808-1.696 3.808-3.456v-.352c0-1.952-.608-2.943-2.432-2.943-1.152 0-1.568.511-1.824 1.631-.352 1.664-1.024 2.272-2.143 2.272-.993 0-1.889-.672-1.889-1.888 0-2.431 3.329-4.095 6.784-4.095z"/><path d="m43.327 22.847c-.608 1.375-2.08 2.271-4.16 2.271-3.552 0-4.928-1.791-4.928-5.055v-10.208h-1.696v-.128l6.208-6.367.096.032v4.032h4.416l-.448 2.431h-3.968v9.472c0 1.824.768 2.527 2.4 2.527 1.248 0 1.92-.191 2.464-.479-.096.607-.16.959-.384 1.472"/><path d="m49.311 7.295v11.968c0 1.792.704 2.783 2.432 2.783 1.471 0 2.56-.48 3.199-1.311v-8.096c0-1.76-.192-3.264-.736-4.8l5.344-.544v12.256c0 2.688.288 3.904.704 5.183h-5.184v-3.455h-.064c-.735 2.207-2.175 3.807-5.151 3.807-3.776 0-5.152-2.272-5.152-5.663v-6.784c0-1.76-.16-3.264-.736-4.8z"/><path d="m66.911 11.487c.768-3.199 2.239-4.447 4.191-4.447 1.793 0 2.688.928 2.688 2.399 0 1.344-.736 2.4-2.144 2.4-.799 0-1.279-.352-1.631-.704-.416-.352-.672-.736-1.056-.736-.928 0-1.952 1.536-1.952 4.192v4.288c0 2.143.16 4.255.576 5.855h-5.792c.512-1.6.64-3.712.64-5.759v-6.24c0-1.695-.608-3.199-1.312-4l5.664-1.631.064.032v4.351z"/><path d="m77.919 14.015 5.791-.512c-.064-2.752-.48-4.383-2.4-4.383-1.952 0-3.104 1.568-3.391 4.895zm3.455 11.103c-4.416 0-8.095-2.944-8.095-8.575 0-5.728 3.488-9.535 8.191-9.535 4.48 0 6.56 2.847 6.56 8.191h-10.176v.512c0 4.32 2.24 6.016 5.28 6.016 2.752 0 4-1.121 4.8-1.92l.096.288c-.736 2.592-2.816 5.023-6.656 5.023z"/><path d="m98.974 11.487c.768-3.199 2.24-4.447 4.192-4.447 1.792 0 2.688.928 2.688 2.399 0 1.344-.736 2.4-2.144 2.4-.8 0-1.28-.352-1.632-.704-.416-.352-.672-.736-1.056-.736-.928 0-1.952 1.536-1.952 4.192v4.288c0 2.143.16 4.255.576 5.855h-5.791c.512-1.6.64-3.712.64-5.759v-6.24c0-1.695-.608-3.199-1.312-4l5.663-1.631.064.032v4.351z"/><path d="m109.982 14.015 5.791-.512c-.064-2.752-.48-4.383-2.399-4.383-1.952 0-3.104 1.568-3.392 4.895zm3.456 11.103c-4.416 0-8.096-2.944-8.096-8.575 0-5.728 3.488-9.535 8.192-9.535 4.479 0 6.559 2.847 6.559 8.191h-10.175v.512c0 4.32 2.24 6.016 5.28 6.016 2.751 0 3.999-1.121 4.799-1.92l.096.288c-.736 2.592-2.816 5.023-6.655 5.023z"/><path d="m127.038 12.223 2.208 5.824h.032l2.176-5.76c.735-1.92 1.024-3.616.48-4.895h4.383c-.8 1.248-1.728 3.168-2.56 5.215l-4.927 12.287h-1.536l-5.024-12.287c-.928-2.24-1.536-3.743-2.463-5.215h6.303c-.096 1.343.16 2.783.928 4.831"/><path d="m136.542 3.296c0-1.536 1.152-2.752 2.784-2.752 1.664 0 2.816 1.216 2.816 2.752 0 1.504-1.152 2.752-2.816 2.752-1.632 0-2.784-1.248-2.784-2.752zm5.28 15.679c0 2.047.128 4.159.64 5.759h-5.92c.512-1.6.64-3.712.64-5.759v-6.24c0-1.695-.608-3.199-1.312-4l6.016-1.631.064.032-.128 4.32z"/><path d="m148.445 14.015 5.792-.512c-.064-2.752-.48-4.383-2.4-4.383-1.952 0-3.104 1.568-3.392 4.895zm3.456 11.103c-4.416 0-8.095-2.944-8.095-8.575 0-5.728 3.487-9.535 8.191-9.535 4.48 0 6.56 2.847 6.56 8.191h-10.176v.512c0 4.32 2.24 6.016 5.28 6.016 2.752 0 4-1.121 4.799-1.92l.097.288c-.736 2.592-2.816 5.023-6.656 5.023z"/><path d="m165.118 12.127 1.727 5.664h.064l3.52-10.367h1.824l3.552 10.367h.064l1.695-5.28c.672-2.048.769-3.84.385-5.119h4.031c-.608 1.376-1.344 3.263-2.08 5.471l-3.967 12.031h-1.792l-3.744-10.911h-.096l-3.872 10.911h-1.824l-3.935-12.063c-.768-2.335-1.408-4-2.048-5.439h5.887c-.095 1.312 0 2.752.609 4.735"/><path d="m192.573 7.872.16 3.647h-.096c-1.28-1.375-2.56-2.399-4.608-2.399-1.376 0-2.272.511-2.272 1.759s.64 1.76 3.424 2.944c2.944 1.216 4.768 2.592 4.768 5.44 0 2.976-1.568 5.855-6.432 5.855-2.048 0-3.999-.416-5.471-1.216l-.192-4.383h.16c1.376 1.76 3.36 3.52 5.471 3.52 2.112 0 2.624-.768 2.624-2.145 0-1.535-.8-1.951-3.487-3.103-2.816-1.184-4.704-2.528-4.704-5.44 0-3.328 2.592-5.311 6.015-5.311 2.272 0 3.552.352 4.64.832"/><path d="m213.34 15.135c-.16-4.064-2.303-5.951-5.568-5.951-3.231 0-5.535 2.303-5.855 5.951zm-13.247 1.408v-.256c0-5.056 3.2-8.543 7.679-8.543 4.032 0 7.328 2.623 7.328 8.159v.608h-13.247c.064 4.48 2.208 7.039 6.176 7.039 2.784 0 4.671-1.152 5.247-3.487h1.696c-.704 3.2-3.36 4.927-6.943 4.927-4.832 0-7.936-3.424-7.936-8.447z"/><path d="m228.06 19.327v-2.848h-3.424c-3.488 0-6.207.736-6.207 3.744 0 2.144 1.343 3.391 4.095 3.391 3.072 0 5.536-1.791 5.536-4.287zm-11.328.896c0-3.872 3.712-5.056 7.84-5.056h3.488v-1.504c0-3.136-1.28-4.479-4.224-4.479-2.528 0-4.319 1.087-4.704 3.551h-1.663c.384-3.52 3.263-4.991 6.431-4.991 3.488 0 5.856 1.664 5.856 5.919v11.071h-1.696v-2.56c-1.056 1.633-2.848 2.816-5.664 2.816-3.295 0-5.664-1.599-5.664-4.767z"/><path d="m233.596 8h1.696v3.519c.928-2.047 2.592-3.647 5.664-3.744v1.6c-3.232.128-5.664 1.632-5.664 6.08v9.279h-1.696z"/><path d="m244.251 20.703v-11.264h-2.463v-1.439h2.463v-3.808h1.696v3.808h4.384v1.439h-4.384v11.136c0 2.015.96 2.944 2.496 2.944.864 0 1.536-.161 2.112-.352v1.439c-.544.192-1.184.352-2.208.352-2.656 0-4.096-1.567-4.096-4.255"/><path d="m253.147 0h1.696v11.263c.768-1.824 2.944-3.519 5.92-3.519 3.551 0 5.951 1.92 5.951 6.687v10.303h-1.695v-10.399c0-3.552-1.665-5.12-4.64-5.12-2.784 0-5.536 1.856-5.536 5.376v10.143h-1.696z"/><path d="m283.258 11.231c2.688-1.248 4.32-2.591 4.32-4.927 0-1.856-1.216-3.2-3.168-3.2s-3.455 1.344-3.455 3.616c0 1.504.863 2.783 2.303 4.511zm5.44 8.992-6.24-7.392c-2.463 1.216-4.639 2.848-4.639 5.792 0 2.912 1.888 4.896 5.151 4.896 2.528 0 4.352-1.409 5.728-3.296zm1.952-.16 3.999 4.671h-2.111l-2.912-3.391c-1.44 1.887-3.52 3.615-6.72 3.615-4.127 0-6.815-2.56-6.815-6.175 0-3.584 2.624-5.504 5.535-6.944-1.503-1.856-2.335-3.36-2.335-5.119 0-3.072 2.399-4.992 5.183-4.992s4.736 2.016 4.736 4.608c0 2.751-2.208 4.543-5.184 5.855l5.664 6.656 3.072-5.696h1.632z"/><path d="m315.706 15.135c-.161-4.064-2.304-5.951-5.568-5.951-3.232 0-5.536 2.303-5.856 5.951zm-13.248 1.408v-.256c0-5.056 3.2-8.543 7.68-8.543 4.031 0 7.327 2.623 7.327 8.159v.608h-13.247c.064 4.48 2.208 7.039 6.176 7.039 2.784 0 4.671-1.152 5.248-3.487h1.695c-.704 3.2-3.359 4.927-6.943 4.927-4.832 0-7.936-3.424-7.936-8.447z"/><path d="m320.154 8h1.696v3.263c.768-1.824 2.944-3.519 5.92-3.519 3.551 0 5.951 1.92 5.951 6.687v10.303h-1.696v-10.399c0-3.552-1.664-5.12-4.639-5.12-2.784 0-5.536 1.856-5.536 5.376v10.143h-1.696z"/><path d="m335.226 8h1.856l5.695 15.039 5.663-15.039h1.729l-6.304 16.734h-2.208z"/><path d="m352.409 24.735h1.696v-16.735h-1.696zm-.384-21.535c0-.64.544-1.184 1.216-1.184s1.185.544 1.185 1.184c0 .672-.513 1.216-1.185 1.216s-1.216-.544-1.216-1.216z"/><path d="m358.138 8h1.695v3.519c.929-2.047 2.592-3.647 5.664-3.744v1.6c-3.231.128-5.664 1.632-5.664 6.08v9.279h-1.695z"/><path d="m380.505 16.511v-.256c0-4.416-2.751-7.071-6.303-7.071-3.584 0-6.336 2.719-6.336 7.071v.256c0 4.288 2.688 7.039 6.336 7.039 3.583 0 6.303-2.719 6.303-7.039zm-14.399 0v-.256c0-5.024 3.616-8.511 8.096-8.511 4.512 0 8.064 3.391 8.064 8.479v.256c0 5.056-3.584 8.511-8.096 8.511-4.544 0-8.064-3.552-8.064-8.479z"/><path d="m384.984 8h1.696v3.263c.768-1.824 2.944-3.519 5.92-3.519 3.551 0 5.951 1.92 5.951 6.687v10.303h-1.696v-10.399c0-3.552-1.664-5.12-4.639-5.12-2.784 0-5.536 1.856-5.536 5.376v10.143h-1.696z"/><path d="m402.36 8h1.696v3.167c.768-1.824 2.752-3.423 5.471-3.423 2.496 0 4.416 1.055 5.12 3.743 1.056-2.367 3.424-3.743 5.952-3.743 3.232 0 5.599 1.759 5.599 6.527v10.463h-1.695v-10.559c0-3.552-1.504-4.96-4.192-4.96-2.56 0-5.184 1.825-5.184 5.312v10.207h-1.695v-10.559c0-3.552-1.504-4.96-4.193-4.96-2.559 0-5.183 1.825-5.183 5.312v10.207h-1.696z"/><path d="m442.007 15.135c-.16-4.064-2.304-5.951-5.568-5.951-3.232 0-5.536 2.303-5.855 5.951zm-13.247 1.408v-.256c0-5.056 3.199-8.543 7.679-8.543 4.032 0 7.328 2.623 7.328 8.159v.608h-13.247c.064 4.48 2.208 7.039 6.175 7.039 2.784 0 4.672-1.152 5.247-3.487h1.697c-.704 3.2-3.36 4.927-6.944 4.927-4.832 0-7.935-3.424-7.935-8.447z"/><path d="m446.457 8h1.695v3.263c.769-1.824 2.945-3.519 5.92-3.519 3.552 0 5.951 1.92 5.951 6.687v10.303h-1.695v-10.399c0-3.552-1.664-5.12-4.64-5.12-2.784 0-5.536 1.856-5.536 5.376v10.143h-1.695z"/><path d="m464.471 20.703v-11.264h-2.464v-1.439h2.464v-3.808h1.696v3.808h4.384v1.439h-4.384v11.136c0 2.015.96 2.944 2.495 2.944.864 0 1.536-.161 2.112-.352v1.439c-.544.192-1.183.352-2.208.352-2.655 0-4.095-1.567-4.095-4.255"/></g></svg>