<svg height="32" viewBox="0 0 214 32" width="214" xmlns="http://www.w3.org/2000/svg"><g><path d="m6.4 4.32h.08v4.32h.08c.88-2.4 3.04-4.4 6.16-4.4 4.08 0 5.28 2 5.28 5.92v7.68c0 2.32.16 4.72.72 6.56h-6.64c.56-1.68.64-3.84.64-6.32v-7.28c0-1.76-.72-2.64-2.72-2.64-1.52 0-2.64.4-3.52 1.2v8.8c0 2.48.08 4.64.64 6.32h-6.4c.56-1.84.72-4.24.72-6.56v-7.12c.08-2.08-.64-3.76-1.44-4.72zm21.68-.16c5.12 0 7.04 2 7.04 6.16v8.72c0 1.52.64 2 1.84 2 .24 0 .88-.08 1.04-.24-.08.56-.16.88-.32 1.28-.56 1.68-1.68 2.72-3.84 2.72-2.48 0-3.84-1.76-3.84-3.6h-.08c-.88 2.48-2.48 3.6-5.12 3.6-3.2 0-5.2-1.84-5.2-4.88 0-3.12 2.88-4.48 5.76-5.6 2.8-1.12 4.32-1.92 4.32-3.92v-.4c0-2.16-.72-3.36-2.8-3.36-1.28 0-1.76.56-2.08 1.84-.4 1.84-1.2 2.56-2.48 2.56-1.12 0-2.16-.72-2.16-2.16.16-2.8 4-4.72 7.92-4.72zm1.76 16.4v-7.12c-.4.56-.88.96-2.32 1.68-1.84.88-2.48 1.84-2.48 4 0 1.68.96 2.8 2.48 2.8 1.36-.08 1.84-.56 2.32-1.36zm19.52 1.6c-.72 1.52-2.32 2.56-4.72 2.56-4 0-5.6-2-5.6-5.76v-11.6h-1.92v-.16l7.04-7.2.08.08v4.64h5.04l-.48 2.72h-4.48v10.8c0 2.08.88 2.88 2.72 2.88 1.44 0 2.16-.24 2.8-.56-.16.64-.24 1.04-.48 1.6zm6.88-17.68v13.6c0 2 .8 3.2 2.8 3.2 1.68 0 2.88-.56 3.68-1.52v-9.2c0-2-.24-3.68-.88-5.44l6.08-.64v13.92c0 3.04.32 4.48.8 5.92h-5.92v-3.92h-.08c-.88 2.48-2.48 4.32-5.84 4.32-4.32 0-5.84-2.56-5.84-6.4v-7.68c0-2-.16-3.68-.88-5.44zm20 4.8c.88-3.68 2.56-5.12 4.8-5.12 2 0 3.04 1.04 3.04 2.72 0 1.52-.88 2.72-2.48 2.72-.88 0-1.44-.4-1.84-.8-.48-.4-.72-.88-1.2-.88-1.04 0-2.16 1.76-2.16 4.8v4.96c0 2.48.16 4.8.64 6.64h-6.64c.56-1.84.72-4.24.72-6.56v-7.12c0-1.92-.72-3.68-1.52-4.56l6.4-1.84.08.08v4.96zm16.56 15.52c-5.04 0-9.2-3.36-9.2-9.76 0-6.56 4-10.88 9.36-10.88 5.12 0 7.44 3.28 7.44 9.36h-11.6v.56c0 4.96 2.56 6.88 6 6.88 3.12 0 4.56-1.28 5.44-2.16l.08.32c-.8 2.88-3.2 5.68-7.52 5.68zm-4-12.72 6.56-.56c-.08-3.12-.56-4.96-2.72-4.96s-3.52 1.84-3.84 5.52zm26.16 12.72c-5.04 0-9.2-3.36-9.2-9.76 0-6.56 4-10.88 9.36-10.88 5.12 0 7.44 3.28 7.44 9.36h-11.6v.56c0 4.96 2.56 6.88 6 6.88 3.12 0 4.56-1.28 5.44-2.16l.08.32c-.8 2.88-3.2 5.68-7.52 5.68zm-3.92-12.72 6.56-.56c-.08-3.12-.56-4.96-2.72-4.96-2.24 0-3.52 1.84-3.84 5.52zm18.64-7.76.08 4.32h.08c.88-2.4 3.04-4.4 6.16-4.4 4.08 0 5.28 2 5.28 5.92v7.68c0 2.32.16 4.72.72 6.56h-6.56c.56-1.68.64-3.84.64-6.32v-7.36c0-1.76-.72-2.64-2.72-2.64-1.52 0-2.64.4-3.52 1.2v8.8c0 2.48.08 4.64.64 6.32h-6.48c.56-1.84.72-4.24.72-6.56v-7.12c0-1.92-.72-3.68-1.52-4.56zm22.88 20.48c-5.04 0-9.2-3.36-9.2-9.76 0-6.56 4-10.88 9.36-10.88 5.12 0 7.44 3.28 7.44 9.36h-11.6v.56c0 4.96 2.56 6.88 6 6.88 3.12 0 4.56-1.28 5.44-2.16l.08.32c-.8 2.88-3.2 5.68-7.52 5.68zm-4-12.72 6.56-.56c-.08-3.12-.56-4.96-2.72-4.96s-3.52 1.84-3.84 5.52zm18.96-2.8c.88-3.68 2.56-5.12 4.8-5.12 2 0 3.04 1.04 3.04 2.72 0 1.52-.88 2.72-2.48 2.72-.88 0-1.44-.4-1.84-.8-.48-.4-.72-.88-1.2-.88-1.04 0-2.16 1.76-2.16 4.8v4.96c0 2.48.16 4.8.64 6.64h-6.56c.56-1.84.72-4.24.72-6.56v-7.12c0-1.92-.72-3.68-1.52-4.56l6.4-1.84.08.08v4.96zm21.52-3.44h.08c.96-1.68 2.72-2.56 3.84-2.56 1.76 0 2.88.88 2.88 2.32 0 1.28-.64 2.32-2 2.32-1.04 0-1.44-.56-1.76-.96s-.64-.88-1.36-.88c-.32 0-.64.08-.96.24 1.04 1.28 1.76 2.8 1.76 4.4 0 4.64-3.84 7.04-8.08 7.04-1.12 0-2.32-.16-3.36-.56-.56.4-.8.88-.8 1.52 0 .72.56 1.36 1.76 1.36 2.32 0 5.92-.24 8.24-.24 3.28 0 5.2 1.36 5.2 4.48 0 4.8-4.32 7.36-11.04 7.36-6.32 0-8.96-1.76-8.96-3.84 0-1.76 2.32-2.72 5.04-3.12v-.08c-1.92-.4-3.6-1.84-3.6-4 0-2.08 1.44-3.36 3.44-3.92v.08c-2.32-.96-4-2.88-4-5.6 0-4.64 3.84-7.04 8.08-7.04 2.16 0 4.24.56 5.6 1.68zm-5.44 24c4.96 0 7.04-1.52 7.04-3.2 0-1.2-.72-1.6-2.32-1.6-2.08 0-6.88.24-7.84.32-.88.08-1.52.96-1.52 1.84 0 1.52 1.44 2.64 4.64 2.64zm3.12-18.96c0-2.88-1.28-4.4-3.2-4.4-2 0-3.12 1.36-3.12 4.72 0 2.88 1.28 4.4 3.2 4.4 2-.08 3.12-1.36 3.12-4.72z"/><path d="m197.2 10.24c-.96-2.56-1.76-4.16-2.64-5.6h7.04c-.16 1.52.16 2.8.88 5.04l2.64 7.92h.08l2.72-8.08c.56-1.76.8-3.36.32-4.8h4.96c-.88 1.52-1.84 3.28-2.8 5.84l-4 11.2c-2.72 7.28-5.2 10.24-8.8 10.24-1.84 0-2.88-.96-2.88-2.32 0-1.2.88-2 2-2 1.2 0 1.68.96 2.4.96 1.04 0 2.48-2.16 3.36-4.8z"/></g></svg>