<svg id="logo" xmlns="http://www.w3.org/2000/svg" viewBox="0 0 185.08 23.8"><path d="M17.4,9.7C17.4,6,16.21,4,12.29,4a6.17,6.17,0,0,0-5.92,4.2h-.1V4.13l-.07,0L0,5.88a6.94,6.94,0,0,1,1.44,4.38v6.82a22,22,0,0,1-.71,6.3H7.07a21,21,0,0,1-.59-6.09V8.86A4.68,4.68,0,0,1,9.8,7.74c1.86,0,2.56.8,2.56,2.52v7a20.62,20.62,0,0,1-.6,6.09H18.1a22,22,0,0,1-.7-6.3Z" transform="translate(0 0)"/><path d="M33.67,18.31V9.94C33.67,6,31.85,4,27,4c-3.78,0-7.42,1.82-7.42,4.48a2,2,0,0,0,2.06,2.06c1.23,0,2-.66,2.35-2.48.28-1.23.73-1.79,2-1.79,2,0,2.66,1.09,2.66,3.22v.39c0,1.92-1.47,2.69-4.17,3.78s-5.57,2.41-5.57,5.42,2,4.69,5,4.69a4.61,4.61,0,0,0,4.87-3.46h.07a3.49,3.49,0,0,0,3.71,3.46,3.48,3.48,0,0,0,3.64-2.59A5.78,5.78,0,0,0,36.47,20a2.26,2.26,0,0,1-1,.28C34.27,20.27,33.67,19.81,33.67,18.31ZM28.6,19.74A2.19,2.19,0,0,1,26.29,21C24.81,21,23.9,20,23.9,18.31a3.63,3.63,0,0,1,2.42-3.85,5.08,5.08,0,0,0,2.28-1.58Z" transform="translate(0 0)"/><path d="M42.52,17.47V7.11h4.35l.48-2.66H42.52V0l-.1,0L35.63,7v.14h1.85V18.27c0,3.57,1.51,5.53,5.39,5.53,2.28,0,3.89-1,4.56-2.48a6.13,6.13,0,0,0,.42-1.61,5.49,5.49,0,0,1-2.7.52C43.36,20.23,42.52,19.46,42.52,17.47Z" transform="translate(0 0)"/><path d="M65.17,4.31l-5.85.59a15.05,15.05,0,0,1,.81,5.25V19a4.2,4.2,0,0,1-3.5,1.43c-1.89,0-2.66-1.08-2.66-3V4.31l-5.85.59a14.39,14.39,0,0,1,.81,5.25v7.42c0,3.71,1.5,6.2,5.63,6.2,3.26,0,4.83-1.75,5.64-4.17h.07v3.78h5.67a16.23,16.23,0,0,1-.77-5.67Z" transform="translate(0 0)"/><path d="M77.8,4c-2.13,0-3.74,1.36-4.58,4.86h-.07V4.13l-.07,0-6.2,1.78a6.94,6.94,0,0,1,1.44,4.38v6.82a22,22,0,0,1-.7,6.3H74a27.25,27.25,0,0,1-.63-6.4V12.29c0-2.91,1.12-4.59,2.14-4.59.42,0,.7.42,1.15.81a2.41,2.41,0,0,0,1.79.77,2.34,2.34,0,0,0,2.34-2.63C80.74,5,79.76,4,77.8,4Z" transform="translate(0 0)"/><path d="M96.35,13c0-5.84-2.27-9-7.17-9-5.15,0-9,4.17-9,10.43s4,9.38,8.85,9.38a7.21,7.21,0,0,0,7.28-5.49l-.1-.32A6.64,6.64,0,0,1,91,20.09c-3.33,0-5.78-1.85-5.78-6.58V13ZM89,6.3c2.1,0,2.56,1.79,2.63,4.8l-6.34.56C85.61,8,86.87,6.3,89,6.3Z" transform="translate(0 0)"/><path d="M121.69,4.41a9.67,9.67,0,0,1-.42,5.6l-1.85,5.78h-.07L115.46,4.45h-2l-3.85,11.34h-.07l-1.89-6.2A13.51,13.51,0,0,1,107,4.41h-6.44a63.16,63.16,0,0,1,2.24,5.95l4.31,13.2h2l4.24-11.94h.1l4.1,11.94h2l4.34-13.16c.8-2.42,1.61-4.48,2.27-6Z" transform="translate(0 0)"/><path d="M140.28,18.31V9.94c0-4-1.82-5.91-6.72-5.91-3.78,0-7.42,1.82-7.42,4.48a2,2,0,0,0,2.06,2.06c1.23,0,2-.66,2.35-2.48.28-1.23.73-1.79,2-1.79,2,0,2.66,1.09,2.66,3.22v.39c0,1.92-1.47,2.69-4.16,3.78-2.84,1.12-5.57,2.41-5.57,5.42s2,4.69,5,4.69a4.59,4.59,0,0,0,4.86-3.46h.07a3.78,3.78,0,0,0,7.35.87,6.37,6.37,0,0,0,.32-1.22,2.3,2.3,0,0,1-1,.28C140.87,20.27,140.28,19.81,140.28,18.31Zm-5.08,1.43A2.17,2.17,0,0,1,132.89,21c-1.47,0-2.38-1.05-2.38-2.69a3.63,3.63,0,0,1,2.42-3.85,5,5,0,0,0,2.27-1.58Z" transform="translate(0 0)"/><path d="M149.13,17.47V7.11h4.34L154,4.45h-4.83V0L149,0l-6.79,7v.14h1.85V18.27c0,3.57,1.51,5.53,5.39,5.53,2.28,0,3.89-1,4.55-2.48a5.44,5.44,0,0,0,.42-1.61,5.44,5.44,0,0,1-2.69.52C150,20.23,149.13,19.46,149.13,17.47Z" transform="translate(0 0)"/><path d="M170.48,13c0-5.84-2.27-9-7.17-9-5.15,0-9,4.17-9,10.43s4,9.38,8.85,9.38a7.21,7.21,0,0,0,7.28-5.49l-.1-.32a6.64,6.64,0,0,1-5.25,2.1c-3.33,0-5.78-1.85-5.78-6.58V13ZM163.13,6.3c2.1,0,2.56,1.79,2.63,4.8l-6.34.56C159.74,8,161,6.3,163.13,6.3Z" transform="translate(0 0)"/><path d="M182.14,4c-2.14,0-3.75,1.36-4.59,4.86h-.07V4.13l-.07,0-6.19,1.78a6.94,6.94,0,0,1,1.43,4.38v6.82a22,22,0,0,1-.7,6.3h6.34a26.73,26.73,0,0,1-.63-6.4V12.29c0-2.91,1.12-4.59,2.13-4.59.42,0,.7.42,1.16.81a2.38,2.38,0,0,0,1.78.77,2.35,2.35,0,0,0,2.35-2.63C185.08,5,184.1,4,182.14,4Z" transform="translate(0 0)"/></svg>