<?xml version="1.0" encoding="UTF-8"?><svg id="Layer_2" xmlns="http://www.w3.org/2000/svg" viewBox="0 0 197.25 35.55"><defs><style>.cls-1{fill:#637c6b;}.cls-1,.cls-2,.cls-3,.cls-4{stroke-width:0px;}.cls-2{fill:#d3df4e;}.cls-3{fill:#2cb34a;}.cls-4{fill:#1fc0da;}</style></defs><g id="mkpl"><path class="cls-1" d="M172.07,14.02c-3.61,0-5.29,1.67-5.29,5.36v10.79c0,3.69,1.68,5.37,5.29,5.37s5.32-1.68,5.38-5.36h0v-1.05h-3.21v.64c0,1.79-.62,2.67-2.13,2.67-1.37,0-2.13-.86-2.13-2.43v-10.48c0-1.58.75-2.43,2.13-2.43,1.52,0,2.13.87,2.13,2.66v.66h3.21v-.89c0-3.8-1.78-5.52-5.38-5.52Z"/><path class="cls-1" d="M80.07,35.31h3.66l-3.89-8.52.23-.1c1.77-.72,2.7-2.33,2.7-4.65v-2.66c0-3.59-1.57-5.12-5.25-5.12h-6.58v21.04h3.21v-8.15h2.37l3.56,8.15ZM74.14,17.1h3.12c1.55,0,2.31.79,2.31,2.44v2.34c0,1.64-.76,2.44-2.31,2.44h-3.12v-7.22Z"/><rect class="cls-1" x="86.38" y="14.27" width="3.21" height="21.04"/><polygon class="cls-1" points="95.16 35.31 98.83 35.31 93.53 24.59 93.58 24.49 98.66 14.27 95.03 14.27 90.11 24.53 95.16 35.31"/><polygon class="cls-1" points="110.95 17.1 110.95 14.27 100.96 14.27 100.96 35.31 110.95 35.31 110.95 32.46 104.16 32.46 104.16 26.06 110.37 26.06 110.37 23.18 104.16 23.18 104.16 17.1 110.95 17.1"/><polygon class="cls-1" points="124.23 14.27 112.88 14.27 112.88 17.1 116.96 17.1 116.96 35.31 120.16 35.31 120.16 17.1 124.23 17.1 124.23 14.27"/><path class="cls-1" d="M138.16,19.38c0-3.59-1.57-5.12-5.25-5.12h-6.26v21.04h3.2v-8.15h2.88c3.54,0,5.42-1.76,5.42-5.11v-2.66ZM134.95,21.88c0,1.64-.75,2.44-2.3,2.44h-2.79v-7.22h2.79c1.55,0,2.3.79,2.3,2.44v2.34Z"/><polygon class="cls-1" points="140.84 14.27 140.84 35.31 149.84 35.31 150.5 32.37 144.11 32.37 144.11 14.27 140.84 14.27"/><path class="cls-1" d="M160.95,30.55l.95,4.76h3.28l-4.89-21.04h-3.77l-4.89,21.04h3.28l.96-4.76h5.08ZM158.4,18.18l1.98,9.59h-3.95l1.97-9.59Z"/><path class="cls-1" d="M64.76,30.55l.96,4.76h3.28l-4.9-21.04h-3.76l-4.89,21.04h3.28l.96-4.76h5.08ZM62.22,18.18l1.98,9.59h-3.95l1.98-9.59Z"/><polygon class="cls-1" points="50.56 20.86 50.56 35.31 53.58 35.31 53.58 14.27 50.27 14.27 46.45 23.14 42.65 14.27 39.33 14.27 39.33 35.31 42.35 35.31 42.35 20.86 46.45 30.2 50.56 20.86"/><polygon class="cls-2" points="14.12 21.19 21.18 28.25 35.28 14.12 35.28 .03 14.12 21.19"/><polygon class="cls-4" points="0 7.06 0 35.31 14.12 21.19 0 7.06"/><polygon class="cls-3" points="14.12 21.19 0 35.31 35.28 35.31 35.28 14.12 21.18 28.25 14.12 21.19"/><polygon class="cls-1" points="189.87 17.1 189.87 14.27 179.87 14.27 179.87 35.31 189.87 35.31 189.87 32.46 183.08 32.46 183.08 25.99 189.28 25.99 189.28 23.25 183.08 23.25 183.08 17.1 189.87 17.1"/><path class="cls-1" d="M194.93,14.27c1.43,0,2.32,1.03,2.32,2.32s-.9,2.34-2.32,2.34-2.31-1.05-2.31-2.34.89-2.32,2.31-2.32ZM194.93,18.29c1.11,0,1.64-.8,1.64-1.7s-.54-1.7-1.64-1.7-1.64.78-1.64,1.7.54,1.7,1.64,1.7ZM194.96,16.91h-.32v.7h-.47v-2.14h.87c.48,0,.7.2.7.6v.23c0,.25-.1.43-.3.52l.55.78h-.54l-.5-.7ZM195.02,15.89h-.38v.59h.38c.21,0,.26-.08.26-.22v-.16c0-.17-.06-.22-.26-.22Z"/><path class="cls-2" d="M37.49,0c.8,0,1.3.58,1.3,1.3s-.5,1.31-1.3,1.31-1.3-.59-1.3-1.31.5-1.3,1.3-1.3ZM37.49,2.26c.62,0,.92-.45.92-.95s-.3-.95-.92-.95-.92.44-.92.95.3.95.92.95ZM37.5,1.48h-.18v.39h-.26V.67h.49c.27,0,.39.11.39.34v.13c0,.14-.06.24-.17.29l.31.44h-.3l-.28-.39ZM37.53.91h-.21v.33h.21c.12,0,.15-.04.15-.12v-.09c0-.09-.04-.12-.15-.12Z"/></g></svg>